# xmcd CD database file
#
# Track frame offsets:
#	150
#	17864
#	33045
#	62078
#	84226
#	97716
#	121251
#	136677
#	147048
#	166957
#	184787
#	201342
#	221445
#	242723
#	263893
#	281649
#
# Disc length: 4003 seconds
#
# Revision: 0
# Processed by: cddbd v1.5.2PL0 Copyright (c) Steve Scherf et al.
# Submitted via: CDex 1.51
#
DISCID=d40fa110
DTITLE=Celtica - Celtica CD 2
DYEAR=1900
DGENRE=New Age
TTITLE0=Kim Robertson - My Johnny was a shoemaker (Cobbler's jig)
TTITLE1=Loreena McKennitt - Blacksmith
TTITLE2=Loreena McKennitt - Breaking the silence
TTITLE3=Lunasa - Morning nightcap
TTITLE4=Lynne Reardon and Michael Koster - Twyngryllyg
TTITLE5=Maire Brennan - Follow the world
TTITLE6=Maire Brennan - To the water
TTITLE7=Maire Ni Chathasaigh - The humoursof Ballyloughlin
TTITLE8=Mike Oldfield - The voyager
TTITLE9=Niamh Parsons - Lakes of coolfin
TTITLE10=Patrick Ball - Bobby Casey's
TTITLE11=Secret garden - Gates of dawn
TTITLE12=Secret garden - Greenwaves
TTITLE13=Sinead O'Connor - The lastday of our acquaintance
TTITLE14=The Corrs - I never loved you anyway
TTITLE15=Wolfstone - No tie ups
EXTD=
EXTT0=
EXTT1=
EXTT2=
EXTT3=
EXTT4=
EXTT5=
EXTT6=
EXTT7=
EXTT8=
EXTT9=
EXTT10=
EXTT11=
EXTT12=
EXTT13=
EXTT14=
EXTT15=
PLAYORDER=
